<svg width="130" height="36" viewBox="0 0 130 36" fill="none" xmlns="http://www.w3.org/2000/svg">
    <g clip-path="url(#clip0_2025_9)">
        <path d="M13.4337 3.66455C14.5562 0.209787 19.4438 0.209791 20.5663 3.66455L21.8409 7.58727C22.3429 9.13229 23.7826 10.1783 25.4072 10.1783H29.5318C33.1643 10.1783 34.6746 14.8267 31.7358 16.9619L28.399 19.3862C27.0847 20.3411 26.5348 22.0336 27.0368 23.5787L28.3114 27.5014C29.4339 30.9561 25.4797 33.829 22.541 31.6938L19.2041 29.2694C17.8898 28.3146 16.1102 28.3146 14.7959 29.2695L11.459 31.6938C8.52023 33.829 4.56611 30.9561 5.68863 27.5014L6.9632 23.5787C7.46521 22.0336 6.91526 20.3411 5.60099 19.3862L2.26413 16.9619C-0.674668 14.8267 0.835677 10.1783 4.46823 10.1783H8.59282C10.2173 10.1783 11.6571 9.13229 12.1591 7.58727L13.4337 3.66455Z" fill="url(#paint0_linear_2025_9)"/>
        <path d="M31.77 18.2655C34.8165 20.2439 33.5515 24.965 29.9239 25.1551L25.805 25.3709C24.1827 25.456 22.7997 26.5759 22.3792 28.1451L21.3117 32.1291C20.3715 35.6379 15.4906 35.8937 14.1888 32.5024L12.7107 28.6518C12.1285 27.1352 10.636 26.1659 9.0137 26.2509L4.89476 26.4668C1.26719 26.6569 -0.484354 22.094 2.33867 19.8079L5.54408 17.2122C6.80657 16.1899 7.26718 14.4709 6.685 12.9543L5.20688 9.10361C3.90509 5.71234 7.70344 2.63649 10.75 4.61492L14.2091 6.86134C15.5716 7.74612 17.3488 7.65297 18.6113 6.63063L21.8167 4.03494C24.6397 1.7489 28.7388 4.41086 27.7986 7.91964L26.7311 11.9037C26.3106 13.4729 26.9484 15.1343 28.3108 16.0191L31.77 18.2655Z" fill="url(#paint1_linear_2025_9)"/>
        <path d="M47.763 32.204C46.9583 32.204 46.2273 32.051 45.57 31.745C44.9127 31.439 44.3573 31.031 43.904 30.521C43.4507 29.9997 43.1277 29.4273 42.935 28.804L44.159 28.345C44.4537 29.2063 44.9127 29.8637 45.536 30.317C46.1593 30.759 46.9017 30.98 47.763 30.98C48.307 30.98 48.783 30.895 49.191 30.725C49.6103 30.5437 49.9333 30.2943 50.16 29.977C50.3867 29.6597 50.5 29.2913 50.5 28.872C50.5 28.2487 50.33 27.767 49.99 27.427C49.65 27.087 49.1627 26.8263 48.528 26.645L46.25 25.965C45.3547 25.7043 44.6633 25.268 44.176 24.656C43.7 24.044 43.462 23.347 43.462 22.565C43.462 21.8963 43.6263 21.307 43.955 20.797C44.2837 20.2757 44.7313 19.8677 45.298 19.573C45.876 19.2783 46.5277 19.131 47.253 19.131C48.0123 19.131 48.6923 19.2727 49.293 19.556C49.905 19.828 50.4207 20.1907 50.84 20.644C51.2593 21.0973 51.5597 21.6017 51.741 22.157L50.551 22.633C50.279 21.885 49.854 21.3183 49.276 20.933C48.7093 20.5477 48.0407 20.355 47.27 20.355C46.7827 20.355 46.352 20.44 45.978 20.61C45.6153 20.78 45.332 21.0237 45.128 21.341C44.924 21.6583 44.822 22.0323 44.822 22.463C44.822 22.9843 44.9863 23.4547 45.315 23.874C45.6437 24.282 46.148 24.588 46.828 24.792L48.834 25.387C49.8313 25.6817 50.585 26.1067 51.095 26.662C51.605 27.2173 51.86 27.9143 51.86 28.753C51.86 29.433 51.6843 30.0337 51.333 30.555C50.993 31.065 50.5113 31.4673 49.888 31.762C49.276 32.0567 48.5677 32.204 47.763 32.204ZM57.7842 32.102C56.9682 32.102 56.3392 31.864 55.8972 31.388C55.4552 30.912 55.2342 30.232 55.2342 29.348V24.163H53.5512V22.888H53.9762C54.3616 22.888 54.6676 22.7633 54.8942 22.514C55.1209 22.2533 55.2342 21.9303 55.2342 21.545V20.78H56.5092V22.888H58.5152V24.163H56.5092V29.348C56.5092 29.654 56.5546 29.926 56.6452 30.164C56.7359 30.3907 56.8889 30.572 57.1042 30.708C57.3309 30.844 57.6312 30.912 58.0052 30.912C58.0959 30.912 58.2036 30.9063 58.3282 30.895C58.4529 30.8837 58.5606 30.8723 58.6512 30.861V32C58.5152 32.034 58.3622 32.0567 58.1922 32.068C58.0222 32.0907 57.8862 32.102 57.7842 32.102ZM63.359 32.204C62.781 32.204 62.2654 32.0963 61.812 31.881C61.3587 31.6543 61.0017 31.3483 60.741 30.963C60.4804 30.5777 60.35 30.1357 60.35 29.637C60.35 29.161 60.452 28.7303 60.656 28.345C60.86 27.9483 61.1774 27.614 61.608 27.342C62.0387 27.07 62.5884 26.8773 63.257 26.764L66.827 26.169V27.325L63.563 27.869C62.9057 27.9823 62.4297 28.192 62.135 28.498C61.8517 28.804 61.71 29.1667 61.71 29.586C61.71 29.994 61.8687 30.3397 62.186 30.623C62.5147 30.9063 62.934 31.048 63.444 31.048C64.0674 31.048 64.6114 30.9177 65.076 30.657C65.5407 30.385 65.9034 30.0223 66.164 29.569C66.4247 29.1157 66.555 28.6113 66.555 28.056V25.744C66.555 25.2 66.3567 24.758 65.96 24.418C65.5634 24.078 65.0477 23.908 64.413 23.908C63.8577 23.908 63.3704 24.0497 62.951 24.333C62.5317 24.605 62.22 24.962 62.016 25.404L60.86 24.775C61.03 24.3897 61.2964 24.0383 61.659 23.721C62.033 23.4037 62.458 23.1543 62.934 22.973C63.41 22.7803 63.903 22.684 64.413 22.684C65.0817 22.684 65.671 22.8143 66.181 23.075C66.7024 23.3357 67.1047 23.6983 67.388 24.163C67.6827 24.6163 67.83 25.1433 67.83 25.744V32H66.555V30.181L66.742 30.368C66.5834 30.708 66.334 31.0197 65.994 31.303C65.6654 31.575 65.2744 31.796 64.821 31.966C64.379 32.1247 63.8917 32.204 63.359 32.204ZM70.4526 32V22.888H71.7276V24.384L71.5576 24.163C71.7729 23.7323 72.0959 23.3923 72.5266 23.143C72.9686 22.8937 73.5012 22.769 74.1246 22.769H74.7026V24.044H73.9036C73.2462 24.044 72.7192 24.248 72.3226 24.656C71.9259 25.064 71.7276 25.642 71.7276 26.39V32H70.4526ZM82.3507 32.204C81.4667 32.204 80.6394 32.0453 79.8687 31.728C79.1094 31.3993 78.4407 30.946 77.8627 30.368C77.2847 29.7787 76.8314 29.0873 76.5027 28.294C76.174 27.4893 76.0097 26.611 76.0097 25.659C76.0097 24.707 76.174 23.8343 76.5027 23.041C76.8314 22.2363 77.2847 21.545 77.8627 20.967C78.4407 20.3777 79.1094 19.9243 79.8687 19.607C80.6394 19.2897 81.4667 19.131 82.3507 19.131C83.2347 19.131 84.0564 19.2953 84.8157 19.624C85.5864 19.9413 86.2607 20.3947 86.8387 20.984C87.4167 21.562 87.87 22.2477 88.1987 23.041C88.5274 23.8343 88.6917 24.707 88.6917 25.659C88.6917 26.611 88.5274 27.4893 88.1987 28.294C87.87 29.0873 87.4167 29.7787 86.8387 30.368C86.2607 30.946 85.5864 31.3993 84.8157 31.728C84.0564 32.0453 83.2347 32.204 82.3507 32.204ZM82.3507 30.929C83.0874 30.929 83.756 30.793 84.3567 30.521C84.9687 30.249 85.4957 29.8693 85.9377 29.382C86.3797 28.8947 86.7197 28.3337 86.9577 27.699C87.207 27.0643 87.3317 26.3843 87.3317 25.659C87.3317 24.945 87.207 24.2707 86.9577 23.636C86.7197 23.0013 86.3797 22.4403 85.9377 21.953C85.4957 21.4657 84.9687 21.086 84.3567 20.814C83.756 20.542 83.0874 20.406 82.3507 20.406C81.614 20.406 80.9397 20.542 80.3277 20.814C79.727 21.086 79.2057 21.4657 78.7637 21.953C78.3217 22.4403 77.976 23.0013 77.7267 23.636C77.4887 24.2707 77.3697 24.945 77.3697 25.659C77.3697 26.3843 77.4887 27.0643 77.7267 27.699C77.976 28.3337 78.3217 28.8947 78.7637 29.382C79.2057 29.8693 79.7327 30.249 80.3447 30.521C80.9567 30.793 81.6254 30.929 82.3507 30.929ZM86.0057 33.53L81.5007 26.934H83.0477L87.5527 33.53H86.0057ZM94.3515 32.204C93.7168 32.204 93.1388 32.0567 92.6175 31.762C92.0962 31.456 91.6825 31.0367 91.3765 30.504C91.0818 29.96 90.9345 29.3367 90.9345 28.634V22.888H92.2095V28.481C92.2095 28.9683 92.3058 29.399 92.4985 29.773C92.7025 30.1357 92.9802 30.419 93.3315 30.623C93.6942 30.827 94.1078 30.929 94.5725 30.929C95.0372 30.929 95.4508 30.827 95.8135 30.623C96.1762 30.4077 96.4595 30.1073 96.6635 29.722C96.8675 29.3253 96.9695 28.855 96.9695 28.311V22.888H98.2445V32H96.9695V30.232L97.2585 30.3C97.0432 30.8893 96.6748 31.354 96.1535 31.694C95.6322 32.034 95.0315 32.204 94.3515 32.204ZM105.015 32.204C104.165 32.204 103.394 32 102.703 31.592C102.023 31.1727 101.484 30.6003 101.088 29.875C100.691 29.1497 100.493 28.328 100.493 27.41C100.493 26.492 100.685 25.6817 101.071 24.979C101.456 24.265 101.977 23.704 102.635 23.296C103.303 22.888 104.051 22.684 104.879 22.684C105.536 22.684 106.12 22.8087 106.63 23.058C107.151 23.296 107.593 23.6247 107.956 24.044C108.318 24.452 108.596 24.9167 108.789 25.438C108.981 25.948 109.078 26.475 109.078 27.019C109.078 27.1323 109.072 27.2627 109.061 27.41C109.049 27.546 109.032 27.6877 109.01 27.835H101.309V26.645H108.279L107.667 27.155C107.769 26.5317 107.695 25.9763 107.446 25.489C107.208 24.9903 106.862 24.5993 106.409 24.316C105.955 24.0213 105.445 23.874 104.879 23.874C104.312 23.874 103.785 24.0213 103.298 24.316C102.822 24.6107 102.448 25.0243 102.176 25.557C101.904 26.0783 101.796 26.7017 101.853 27.427C101.796 28.1523 101.909 28.787 102.193 29.331C102.487 29.8637 102.884 30.2773 103.383 30.572C103.893 30.8667 104.437 31.014 105.015 31.014C105.683 31.014 106.244 30.8553 106.698 30.538C107.151 30.2207 107.519 29.824 107.803 29.348L108.891 29.926C108.709 30.334 108.432 30.7137 108.058 31.065C107.684 31.405 107.236 31.6827 106.715 31.898C106.205 32.102 105.638 32.204 105.015 32.204ZM111.326 32V22.888H112.601V24.384L112.431 24.163C112.646 23.7323 112.969 23.3923 113.4 23.143C113.842 22.8937 114.374 22.769 114.998 22.769H115.576V24.044H114.777C114.119 24.044 113.592 24.248 113.196 24.656C112.799 25.064 112.601 25.642 112.601 26.39V32H111.326ZM117.257 35.74C117.075 35.74 116.888 35.723 116.696 35.689C116.514 35.6663 116.333 35.621 116.152 35.553V34.363C116.265 34.3743 116.407 34.3913 116.577 34.414C116.758 34.448 116.939 34.465 117.121 34.465C117.676 34.465 118.101 34.346 118.396 34.108C118.69 33.8813 118.979 33.4393 119.263 32.782L119.841 31.422L119.807 32.544L115.948 22.888H117.325L120.487 30.861H120.13L123.275 22.888H124.686L120.521 33.156C120.339 33.598 120.107 34.0173 119.824 34.414C119.552 34.8107 119.206 35.128 118.787 35.366C118.367 35.6153 117.857 35.74 117.257 35.74Z" fill="#A02755"/>
        <path d="M44 14.8254V3H46.1587V14.8254H44Z" fill="#A02755"/>
        <path d="M48.2587 14.8254V6.19048H50.2111V7.88889C50.2111 6.84132 50.9191 6.48206 51.0365 6.4127C51.5021 6.13757 52.0417 6 52.6555 6C53.2904 6 53.8513 6.13757 54.338 6.4127C54.8354 6.68783 55.2216 7.07407 55.4968 7.57143C55.7719 8.0582 55.9095 8.62434 55.9095 9.26984V14.8254H53.8301V9.7619C53.8301 9.38095 53.756 9.05291 53.6079 8.77778C53.4597 8.50265 53.2534 8.29101 52.9888 8.14286C52.7349 7.98413 52.4333 7.90476 52.0841 7.90476C51.7455 7.90476 51.4439 7.98413 51.1793 8.14286C50.9148 8.29101 50.7084 8.50265 50.5603 8.77778C50.4121 9.05291 50.338 9.38095 50.338 9.7619V14.8254H48.2587Z" fill="#A02755"/>
        <path d="M61.6043 14.9206C60.6307 14.9206 59.8741 14.6561 59.3344 14.127C58.8053 13.5873 58.5408 12.8307 58.5408 11.8571V8.04762H57.0487V6.19048H57.2075C57.6307 6.19048 57.9593 6.05057 58.2545 5.56614C58.5277 5.1179 58.5408 4.6455 58.5408 4.22222H60.6202V6.19048H62.6043V8.04762H60.6202V11.746C60.6202 12.0317 60.6678 12.2751 60.763 12.4762C60.8688 12.6772 61.0276 12.8307 61.2392 12.9365C61.4614 13.0423 61.7419 13.0952 62.0805 13.0952C62.1546 13.0952 62.2392 13.0899 62.3344 13.0794C62.4403 13.0688 62.9212 13.0582 63.0164 13.0476L62.636 14.8254C62.4879 14.8466 62.3186 14.8677 62.1281 14.8889C61.9376 14.9101 61.763 14.9206 61.6043 14.9206Z" fill="#A02755"/>
        <path d="M68.2424 15.0159C67.3535 15.0159 66.5758 14.8148 65.9091 14.4127C65.2424 14.0106 64.7239 13.4656 64.3535 12.7778C63.9832 12.0899 63.798 11.328 63.798 10.4921C63.798 9.62434 63.9832 8.85714 64.3535 8.19048C64.7345 7.51323 65.2477 6.97884 65.8932 6.5873C66.5493 6.19577 67.2795 6 68.0837 6C68.761 6 69.3535 6.11111 69.8615 6.33333C70.38 6.55556 70.8192 6.86243 71.1789 7.25397C71.5387 7.6455 71.8139 8.09524 72.0043 8.60317C72.1948 9.10053 72.2901 9.64021 72.2901 10.2222C72.2901 10.3704 72.2795 10.5238 72.2583 10.6825C72.2477 10.8413 72.2213 10.9788 72.1789 11.0952H65.5123V9.50794H71.0043L70.0202 10.254C70.1154 9.7672 70.089 9.33333 69.9408 8.95238C69.8033 8.57143 69.5705 8.26984 69.2424 8.04762C68.925 7.8254 68.5387 7.71429 68.0837 7.71429C67.6498 7.71429 67.2636 7.8254 66.925 8.04762C66.5863 8.25926 66.3271 8.57672 66.1472 9C65.9779 9.4127 65.9144 9.91534 65.9567 10.5079C65.9144 11.037 65.9832 11.5079 66.1631 11.9206C66.3535 12.3228 66.6287 12.6349 66.9885 12.8571C67.3588 13.0794 67.7821 13.1905 68.2583 13.1905C68.7345 13.1905 69.1366 13.0899 69.4647 12.8889C69.8033 12.6878 70.0678 12.418 70.2583 12.0794L71.9408 12.9048C71.7715 13.3175 71.507 13.6825 71.1472 14C70.7874 14.3175 70.3588 14.5661 69.8615 14.746C69.3747 14.9259 68.835 15.0159 68.2424 15.0159Z" fill="#A02755"/>
        <path d="M73.8663 14.8254V6.19048H75.8187V8.11111C75.8187 7.34774 76.1732 6.73016 76.5965 6.47619C77.0303 6.22222 77.5489 6.09524 78.152 6.09524H78.66V7.93651H77.9139C77.3213 7.93651 76.8452 8.12169 76.4854 8.49206C76.1256 8.85185 75.9457 9.35979 75.9457 10.0159V14.8254H73.8663Z" fill="#A02755"/>
        <path d="M82.4222 15.0159C81.8191 15.0159 81.2953 14.9153 80.8508 14.7143C80.4064 14.5132 80.0625 14.2275 79.8191 13.8571C79.5757 13.4762 79.454 13.037 79.454 12.5397C79.454 12.0635 79.5598 11.6402 79.7714 11.2698C79.9831 10.8889 80.3111 10.5714 80.7556 10.3175C81.2 10.0635 81.7609 9.8836 82.4381 9.77778L84.3127 9.53439V11.1217L82.8349 11.3175C82.4222 11.3915 82.1154 11.5238 81.9143 11.7143C81.7132 11.9048 81.6127 12.1534 81.6127 12.4603C81.6127 12.7566 81.7238 12.9947 81.9461 13.1746C82.1789 13.3439 82.4646 13.4286 82.8032 13.4286C83.2371 13.4286 83.618 13.3386 83.9461 13.1587C84.2847 12.9683 84.5439 12.709 84.7238 12.381C84.9143 12.0529 85.0095 11.6931 85.0095 11.3016V9.07937C85.0095 8.70899 84.8614 8.40212 84.5651 8.15873C84.2794 7.90476 83.8984 7.77778 83.4222 7.77778C82.9778 7.77778 82.581 7.89947 82.2318 8.14286C81.8931 8.37566 81.6445 8.68783 81.4857 9.07937L79.7873 8.25397C79.9566 7.79894 80.2212 7.40741 80.581 7.07937C80.9513 6.74074 81.3852 6.47619 81.8826 6.28571C82.3799 6.09524 82.9196 6 83.5016 6C84.2106 6 84.8349 6.13228 85.3746 6.39683C85.9143 6.65079 86.3323 7.01058 86.6286 7.47619C86.9355 7.93122 87.0889 8.46561 87.0889 9.07937V14.8254H85.1207V13.3492L85.5651 13.3175C85.3429 13.6878 85.0783 14 84.7714 14.254C84.4646 14.4974 84.1154 14.6878 83.7238 14.8254C83.3323 14.9524 82.8984 15.0159 82.4222 15.0159Z" fill="#A02755"/>
        <path d="M88.2171 14.8254L92.2965 3H95.0901L99.1695 14.8254H96.8203L95.36 10.381H92.0267L90.5505 14.8254H88.2171ZM92.0267 10.381H95.36L93.3917 4.49206H93.9949L92.0267 10.381Z" fill="#A02755"/>
        <path d="M100.311 18V6.19048H102.263V7.90476V7.34306C102.56 6.87745 102.771 6.65079 103.279 6.39683C103.787 6.13228 104.374 6 105.041 6C105.856 6 106.591 6.20106 107.248 6.60318C107.904 7.00529 108.422 7.54497 108.803 8.22222C109.195 8.89947 109.39 9.66138 109.39 10.5079C109.39 11.3439 109.2 12.1058 108.819 12.7937C108.438 13.4815 107.919 14.0265 107.263 14.4286C106.607 14.8201 105.861 15.0159 105.025 15.0159C104.401 15.0159 103.824 14.8942 103.295 14.6508C102.777 14.3968 102.364 14.037 102.057 13.5714L102.39 13.1587V18H100.311ZM104.787 13.1111C105.263 13.1111 105.687 13 106.057 12.7778C106.427 12.5556 106.713 12.2487 106.914 11.8571C107.126 11.4656 107.232 11.0159 107.232 10.5079C107.232 10 107.126 9.55556 106.914 9.1746C106.713 8.78307 106.427 8.47619 106.057 8.25397C105.687 8.02116 105.263 7.90476 104.787 7.90476C104.332 7.90476 103.919 8.01587 103.549 8.2381C103.189 8.46032 102.904 8.77249 102.692 9.1746C102.491 9.56614 102.39 10.0106 102.39 10.5079C102.39 11.0159 102.491 11.4656 102.692 11.8571C102.904 12.2487 103.189 12.5556 103.549 12.7778C103.919 13 104.332 13.1111 104.787 13.1111Z" fill="#A02755"/>
        <path d="M110.976 18V6.19048H112.928V7.90476V7.33232C113.224 6.86671 113.436 6.65079 113.944 6.39683C114.452 6.13228 115.039 6 115.706 6C116.521 6 117.256 6.20106 117.912 6.60318C118.568 7.00529 119.087 7.54497 119.468 8.22222C119.859 8.89947 120.055 9.66138 120.055 10.5079C120.055 11.3439 119.865 12.1058 119.484 12.7937C119.103 13.4815 118.584 14.0265 117.928 14.4286C117.272 14.8201 116.526 15.0159 115.69 15.0159C115.066 15.0159 114.489 14.8942 113.96 14.6508C113.441 14.3968 113.029 14.037 112.722 13.5714L113.055 13.1587V18H110.976ZM115.452 13.1111C115.928 13.1111 116.351 13 116.722 12.7778C117.092 12.5556 117.378 12.2487 117.579 11.8571C117.791 11.4656 117.896 11.0159 117.896 10.5079C117.896 10 117.791 9.55556 117.579 9.1746C117.378 8.78307 117.092 8.47619 116.722 8.25397C116.351 8.02116 115.928 7.90476 115.452 7.90476C114.997 7.90476 114.584 8.01587 114.214 8.2381C113.854 8.46032 113.568 8.77249 113.357 9.1746C113.156 9.56614 113.055 10.0106 113.055 10.5079C113.055 11.0159 113.156 11.4656 113.357 11.8571C113.568 12.2487 113.854 12.5556 114.214 12.7778C114.584 13 114.997 13.1111 115.452 13.1111Z" fill="#A02755"/>
        <path d="M124.926 15.0159C124.005 15.0159 123.201 14.7989 122.513 14.3651C121.836 13.9206 121.371 13.3228 121.117 12.5714L122.672 11.8254C122.894 12.3122 123.201 12.6931 123.593 12.9683C123.995 13.2434 124.439 13.381 124.926 13.381C125.307 13.381 125.609 13.2963 125.831 13.127C126.053 12.9577 126.164 12.7354 126.164 12.4603C126.164 12.291 126.117 12.1534 126.021 12.0476C125.937 11.9312 125.815 11.836 125.656 11.7619C125.508 11.6772 125.344 11.6085 125.164 11.5556L123.751 11.1587C123.021 10.9471 122.466 10.6243 122.085 10.1905C121.714 9.75661 121.529 9.24339 121.529 8.65079C121.529 8.12169 121.662 7.66138 121.926 7.26984C122.201 6.86773 122.577 6.55556 123.053 6.33333C123.54 6.11111 124.095 6 124.72 6C125.535 6 126.254 6.19577 126.878 6.5873C127.503 6.97884 127.947 7.5291 128.212 8.2381L126.624 8.98413C126.476 8.59259 126.228 8.28042 125.878 8.04762C125.529 7.81481 125.138 7.69841 124.704 7.69841C124.355 7.69841 124.08 7.77778 123.878 7.93651C123.677 8.09524 123.577 8.30159 123.577 8.55556C123.577 8.71429 123.619 8.85185 123.704 8.96825C123.789 9.08466 123.905 9.17989 124.053 9.25397C124.212 9.32804 124.392 9.39683 124.593 9.46032L125.974 9.87302C126.683 10.0847 127.228 10.4021 127.609 10.8254C128 11.2487 128.196 11.7672 128.196 12.381C128.196 12.8995 128.058 13.3598 127.783 13.7619C127.508 14.1534 127.127 14.4603 126.64 14.6825C126.154 14.9048 125.582 15.0159 124.926 15.0159Z" fill="#A02755"/>
    </g>
    <defs>
        <linearGradient id="paint0_linear_2025_9" x1="7.6254" y1="1.12573" x2="28.2495" y2="30.187" gradientUnits="userSpaceOnUse">
            <stop stop-color="#D63472"/>
            <stop offset="1" stop-color="#701B3C"/>
        </linearGradient>
        <linearGradient id="paint1_linear_2025_9" x1="35.7256" y1="13.3122" x2="2.31671" y2="25.712" gradientUnits="userSpaceOnUse">
            <stop stop-color="#D63472"/>
            <stop offset="1" stop-color="#701B3C"/>
        </linearGradient>
        <clipPath id="clip0_2025_9">
            <rect width="130" height="36" fill="white"/>
        </clipPath>
    </defs>
</svg>
