<svg width="216" height="215" viewBox="0 0 216 215" fill="none" xmlns="http://www.w3.org/2000/svg">
<path d="M94.1949 50.008C98.5401 36.6347 117.46 36.6347 121.805 50.0079L126.739 65.1927C128.682 71.1734 134.255 75.2226 140.544 75.2226H156.51C170.571 75.2226 176.418 93.2162 165.042 101.481L152.125 110.866C147.038 114.562 144.909 121.114 146.852 127.095L151.786 142.28C156.131 155.653 140.825 166.773 129.449 158.508L116.532 149.124C111.444 145.427 104.555 145.427 99.468 149.124L86.5511 158.508C75.1751 166.773 59.8688 155.653 64.2141 142.28L69.1479 127.095C71.0911 121.114 68.9623 114.562 63.8748 110.866L50.9579 101.481C39.582 93.2162 45.4284 75.2226 59.4899 75.2226H75.4561C81.7445 75.2226 87.3179 71.1734 89.2611 65.1927L94.1949 50.008Z" fill="url(#paint0_linear_14_71)"/>
<path d="M165.174 106.528C176.967 114.186 172.07 132.461 158.028 133.197L142.084 134.033C135.804 134.362 130.45 138.697 128.823 144.771L124.69 160.194C121.051 173.776 102.157 174.766 97.1181 161.639L91.3964 146.733C89.1428 140.862 83.3652 137.11 77.0853 137.439L61.1411 138.275C47.0988 139.011 40.3186 121.348 51.2464 112.499L63.6545 102.451C68.5416 98.4933 70.3246 91.839 68.071 85.9682L62.3492 71.0625C57.31 57.935 72.0133 46.0285 83.8063 53.6869L97.1966 62.3827C102.471 65.8077 109.35 65.4471 114.237 61.4896L126.645 51.4418C137.573 42.5926 153.44 52.897 149.801 66.4793L145.669 81.9015C144.041 87.9757 146.51 94.4071 151.784 97.8321L165.174 106.528Z" fill="url(#paint1_linear_14_71)"/>
<defs>
<linearGradient id="paint0_linear_14_71" x1="71.7112" y1="40.1803" x2="151.546" y2="152.675" gradientUnits="userSpaceOnUse">
<stop stop-color="#D63472"/>
<stop offset="1" stop-color="#701B3C"/>
</linearGradient>
<linearGradient id="paint1_linear_14_71" x1="180.486" y1="87.3539" x2="51.1615" y2="135.353" gradientUnits="userSpaceOnUse">
<stop stop-color="#D63472"/>
<stop offset="1" stop-color="#701B3C"/>
</linearGradient>
</defs>
</svg>
