<svg width="40" height="40" viewBox="0 0 40 40" fill="none" xmlns="http://www.w3.org/2000/svg">
    <g clip-path="url(#clip0_11_6)">
        <path d="M17.2423 5.92786C18.1104 3.25606 21.8898 3.25605 22.7579 5.92786L24.0323 9.84973C24.6482 11.745 26.4145 13.0284 28.4073 13.0284H32.5314C35.3406 13.0286 36.5082 16.6233 34.2355 18.2745L30.8995 20.6984C29.2873 21.8697 28.6128 23.9466 29.2286 25.8419L30.5031 29.7638C31.3438 32.3521 28.4998 34.5182 26.255 33.1495L26.0402 33.006L22.7042 30.5822C21.092 29.4108 18.9083 29.4108 17.296 30.5822L13.9601 33.006C11.6874 34.6572 8.6293 32.4355 9.49719 29.7638L10.7716 25.8419C11.3489 24.0651 10.7919 22.1291 9.39172 20.9288L9.10071 20.6984L5.76379 18.2745C3.49132 16.6232 4.65966 13.0284 7.46887 13.0284H11.5929C13.5857 13.0284 15.3521 11.745 15.9679 9.84973L17.2423 5.92786Z" stroke="#333" stroke-width="1.7"/>
    </g>
    <defs>
        <clipPath id="clip0_11_6">
            <rect width="40" height="40" fill="white"/>
        </clipPath>
    </defs>
</svg>
