<svg width="40" height="40" viewBox="0 0 40 40" fill="none" xmlns="http://www.w3.org/2000/svg">
    <g clip-path="url(#clip0_5_5)">
        <path d="M16.4337 5.66455C17.5562 2.20979 22.4438 2.20979 23.5663 5.66455L24.8409 9.58727C25.3429 11.1323 26.7826 12.1783 28.4072 12.1783H32.5318C36.1643 12.1783 37.6746 16.8267 34.7358 18.9619L31.399 21.3862C30.0847 22.3411 29.5348 24.0336 30.0368 25.5787L31.3114 29.5014C32.4339 32.9561 28.4797 35.829 25.541 33.6938L22.2041 31.2694C20.8898 30.3146 19.1102 30.3146 17.7959 31.2695L14.459 33.6938C11.5202 35.829 7.56611 32.9561 8.68863 29.5014L9.9632 25.5787C10.4652 24.0336 9.91526 22.3411 8.60099 21.3862L5.26413 18.9619C2.32533 16.8267 3.83568 12.1783 7.46823 12.1783H11.5928C13.2173 12.1783 14.6571 11.1323 15.1591 9.58727L16.4337 5.66455Z" fill="url(#paint0_linear_5_5)"/>
        <path d="M34.77 20.2655C37.8165 22.2439 36.5515 26.965 32.9239 27.1551L28.805 27.3709C27.1827 27.456 25.7997 28.5759 25.3792 30.1451L24.3117 34.1291C23.3715 37.6379 18.4906 37.8937 17.1888 34.5024L15.7107 30.6518C15.1285 29.1352 13.636 28.1659 12.0137 28.2509L7.89476 28.4668C4.26719 28.6569 2.51565 24.094 5.33867 21.8079L8.54408 19.2122C9.80657 18.1899 10.2672 16.4709 9.685 14.9543L8.20688 11.1036C6.90509 7.71234 10.7034 4.63649 13.75 6.61492L17.2091 8.86134C18.5716 9.74612 20.3488 9.65297 21.6113 8.63063L24.8167 6.03494C27.6397 3.7489 31.7388 6.41086 30.7986 9.91964L29.7311 13.9037C29.3106 15.4729 29.9484 17.1343 31.3108 18.0191L34.77 20.2655Z" fill="url(#paint1_linear_5_5)"/>
    </g>
    <defs>
        <linearGradient id="paint0_linear_5_5" x1="10.6254" y1="3.12573" x2="31.2495" y2="32.187" gradientUnits="userSpaceOnUse">
            <stop stop-color="#D63472"/>
            <stop offset="1" stop-color="#701B3C"/>
        </linearGradient>
        <linearGradient id="paint1_linear_5_5" x1="38.7256" y1="15.3122" x2="5.31671" y2="27.712" gradientUnits="userSpaceOnUse">
            <stop stop-color="#D63472"/>
            <stop offset="1" stop-color="#701B3C"/>
        </linearGradient>
        <clipPath id="clip0_5_5">
            <rect width="40" height="40" fill="white"/>
        </clipPath>
    </defs>
</svg>
