<svg width="40" height="40" viewBox="0 0 40 40" fill="none" xmlns="http://www.w3.org/2000/svg">
    <g clip-path="url(#clip0_51_2)">
        <path d="M16.4337 5.66455C17.5562 2.20979 22.4438 2.20979 23.5663 5.66455L24.8409 9.58727C25.3429 11.1323 26.7826 12.1783 28.4072 12.1783H32.5318C36.1643 12.1783 37.6746 16.8267 34.7358 18.9619L31.399 21.3862C30.0847 22.3411 29.5348 24.0336 30.0368 25.5787L31.3114 29.5014C32.4339 32.9561 28.4797 35.829 25.541 33.6938L22.2041 31.2694C20.8898 30.3146 19.1102 30.3146 17.7959 31.2695L14.459 33.6938C11.5202 35.829 7.56611 32.9561 8.68863 29.5014L9.9632 25.5787C10.4652 24.0336 9.91526 22.3411 8.60099 21.3862L5.26413 18.9619C2.32533 16.8267 3.83568 12.1783 7.46823 12.1783H11.5928C13.2173 12.1783 14.6571 11.1323 15.1591 9.58727L16.4337 5.66455Z" fill="url(#paint0_linear_51_2)"/>
    </g>
    <defs>
        <linearGradient id="paint0_linear_51_2" x1="10.6254" y1="3.12573" x2="31.2495" y2="32.187" gradientUnits="userSpaceOnUse">
            <stop stop-color="#D63472"/>
            <stop offset="1" stop-color="#701B3C"/>
        </linearGradient>
        <clipPath id="clip0_51_2">
            <rect width="40" height="40" fill="white"/>
        </clipPath>
    </defs>
</svg>